# AST/ASF file generated using VICON BodyLanguage
# -----------------------------------------------
:version 1.10
:name VICON
:units
  mass 1.0
  length 0.45
  angle deg
:documentation
   .ast/.asf automatically generated from VICON data using
   VICON BodyBuilder and BodyLanguage model FoxedUp or BRILLIANT.MOD
:root
   order TX TY TZ RX RY RZ
   axis XYZ
   position 0 0 0  
   orientation 0 0 0 
:bonedata
  begin
     id 1 
     name lhipjoint
     direction 0.734343 -0.627749 0.258209 
     length 2.5437 
     axis 0 0 0  XYZ
  end
  begin
     id 2 
     name lfemur
     direction 0.34202 -0.939693 0  
     length 6.7391  
     axis 0 0 20  XYZ
    dof rx ry rz
    limits (-160.0 20.0)
           (-70.0 70.0)
           (-60.0 70.0)
  end
  begin
     id 3 
     name ltibia
     direction 0.34202 -0.939693 0   
     length 7.21536   
     axis 0 0 20   XYZ
    dof rx
    limits (-10.0 170.0)
  end
  begin
     id 4 
     name lfoot
     direction 0.0489572 -0.134509 0.989702   
     length 1.61313   
     axis -90 7.62852e-016 20   XYZ
    dof rx rz
    limits (-45.0 90.0)
           (-70.0 20.0)
  end
  begin
     id 5 
     name ltoes
     direction 1.53451e-011 -4.21692e-011 1   
     length 0.823104   
     axis -90 7.62852e-016 20   XYZ
    dof rx
    limits (-90.0 20.0)
  end
  begin
     id 6 
     name rhipjoint
     direction -0.746398 -0.615468 0.253157   
     length 2.59446  
     axis 0 0 0  XYZ 
  end
  begin
     id 7 
     name rfemur
     direction -0.34202 -0.939693 0   
     length 6.7075   
     axis 0 0 -20   XYZ
    dof rx ry rz
    limits (-160.0 20.0)
           (-70.0 70.0)
           (-70.0 60.0)
  end
  begin
     id 8 
     name rtibia
     direction -0.34202 -0.939693 0   
     length 7.27262   
     axis 0 0 -20   XYZ
    dof rx
    limits (-10.0 170.0)
 end
 begin
     id 9 
     name rfoot
     direction -0.0455203 -0.125066 0.991104   
     length 1.91095  
     axis -90 -7.62852e-016 -20   XYZ
    dof rx rz
    limits (-45.0 90.0)
           (-20.0 70.0)
  end
  begin
     id 10 
     name rtoes
     direction -1.53601e-011 -4.21913e-011 1   
     length 0.969037   
     axis -90 -7.62852e-016 -20   XYZ
    dof rx
    limits (-90.0 20.0)
  end
  begin
     id 11 
     name lowerback
     direction 0.0181546 0.999122 -0.0377542   
     length 1.99916   
     axis 0 0 0   XYZ
    dof rx ry rz
    limits (-20.0 45.0)
           (-30.0 30.0)
           (-30.0 30.0)
  end
  begin
     id 12 
     name upperback
     direction 0.0203486 0.99589 0.0882534   
     length 1.951   
     axis 0 0 0   XYZ
    dof rx ry rz
    limits (-20.0 45.0)
           (-30.0 30.0)
           (-30.0 30.0)
  end
  begin
     id 13 
     name thorax
     direction 0.0131685 0.994241 0.106355   
     length 1.97461   
     axis 0 0 0   XYZ
    dof rx ry rz
    limits (-20.0 45.0)
           (-30.0 30.0)
           (-30.0 30.0)
  end
  begin
     id 14 
     name lowerneck
     direction -0.0281395 0.999325 0.023617   
     length 1.7959   
     axis 0 0 0   XYZ
    dof rx ry rz
    limits (-20.0 45.0)
           (-30.0 30.0)
           (-30.0 30.0)
  end
  begin
     id 15 
     name upperneck
     direction 0.0288721 0.991984 -0.123019   
     length 1.79917   
     axis 0 0 0   XYZ
    dof rx ry rz
    limits (-20.0 45.0)
           (-30.0 30.0)
           (-30.0 30.0)
  end
  begin
     id 16
     name head
     direction 0.0133797 0.998944 -0.0439492  
     length 1.80902  
     axis 0 0 0   XYZ
    dof rx ry rz
    limits (-20.0 45.0)
           (-30.0 30.0)
           (-30.0 30.0)
  end
  begin
     id 17 
     name lclavicle
     direction 0.919195 0.377107 0.113449  
     length 3.17815  
     axis 0 0 0   XYZ
    dof ry rz
    limits (-20.0 10.0)
           (0.0 20.0)
  end
  begin
     id 18 
     name lhumerus
     direction 1 -4.48959e-011 2.13129e-027   
     length 4.84137   
     axis 180 -30 -90   XYZ
    dof rx ry rz
    limits (-60.0 90.0)
           (-90.0 90.0)
           (-90.0 90.0)
  end
  begin
     id 19
     name lradius
     direction 1 -4.48957e-011 -6.30627e-028   
     length 3.2452   
     axis 180 -30 -90   XYZ
    dof rx
    limits (-10.0 170.0)
  end
  begin
     id 20
     name lwrist
     direction 1 -4.4901e-011 9.13299e-027   
     length 1.6226   
     axis -6.84618e-015 90 90   XYZ
    dof ry
    limits (-180.0 0.0)
 end
  begin
     id 21 
     name lhand
     direction 1 -4.48816e-011 1.82293e-026   
     length 0.521221   
     axis -1.16502e-014 90 90   XYZ
    dof rx rz
    limits (-90.0 90.0)
           (-45.0 45.0)
  end
  begin
     id 22 
     name lfingers
     direction 1 -4.49108e-011 3.65687e-026   
     length 0.420221   
     axis -2.33008e-014 90 90   XYZ
    dof rx
    limits (0.0 90.0)
  end
  begin
     id 23
     name lthumb
     direction 0.707107 -6.34943e-011 0.707107   
     length 0.603356   
     axis -90 45 5.69224e-014   XYZ
    dof rx rz
    limits (-45.0 45.0)
           (-45.0 45.0)
  end
  begin
     id 24 
     name rclavicle
     direction -0.90847 0.38596 0.160368   
     length 3.12973  
     axis 0 0 0   XYZ 
    dof ry rz
    limits (-10.0 20.0)
           (-20.0 0.0)
  end
  begin
     id 25 
     name rhumerus
     direction -1 -4.48974e-011 4.47268e-028  
     length 4.72284   
     axis 180 30 90   XYZ
    dof rx ry rz
    limits (-90.0 60.0)
           (-90.0 90.0)
           (-90.0 90.0)
  end
  begin
     id 26 
     name rradius
     direction -1 -4.48969e-011 3.43203e-027   
     length 3.23459   
     axis 180 30 90   XYZ
    dof rx
    limits (-10.0 170.0)
  end
  begin
     id 27 
     name rwrist
     direction -1 -4.48969e-011 9.12911e-027   
     length 1.6173   
     axis -6.84618e-015 -90 -90   XYZ
    dof ry
    limits (-180.0 0.0)
  end
  begin
     id 28
     name rhand
     direction -1 -4.49194e-011 1.83006e-026   
     length 0.307416   
     axis -1.16502e-014 -90 -90   XYZ
    dof rx rz
    limits (-90.0 90.0)
           (-45.0 45.0)
  end
  begin
     id 29
     name rfingers
     direction -1 -4.48423e-011 3.63103e-026   
     length 0.247847   
     axis -2.33008e-014 -90 -90   XYZ
    dof rx
    limits (0.0 90.0)
  end
  begin
     id 30
     name rthumb
     direction -0.707107 -6.34802e-011 0.707107   
     length 0.35586   
     axis -90 -45 -5.69224e-014   XYZ
    dof rx rz
    limits (-45.0 45.0)
           (-45.0 45.0)
  end
:hierarchy
  begin
    root lhipjoint rhipjoint lowerback
    lhipjoint lfemur
    lfemur ltibia
    ltibia lfoot
    lfoot ltoes
    rhipjoint rfemur
    rfemur rtibia
    rtibia rfoot
    rfoot rtoes
    lowerback upperback
    upperback thorax
    thorax lowerneck lclavicle rclavicle
    lowerneck upperneck
    upperneck head
    lclavicle lhumerus
    lhumerus lradius
    lradius lwrist
    lwrist lhand lthumb
    lhand lfingers
    rclavicle rhumerus
    rhumerus rradius
    rradius rwrist
    rwrist rhand rthumb
    rhand rfingers
  end

#!OML:ASF H:\Terrain\Patient Classification 1\Animal1\Tuesday\Animal1.ASF
:FULLY-SPECIFIED
:DEGREES
121
root 11.2306 13.9694 -16.6211 24.0081 0.480496 0.616697
lowerback 14.9379 -0.973371 0.943252
upperback -1.82905 -0.94085 1.76025
thorax -10.3932 -0.44093 1.59809
lowerneck -12.7389 -0.0404473 -3.7924
upperneck -10.4856 0.601369 4.25872
head -1.21303 0.418368 2.01855
rclavicle 3.18055e-015 1.27222e-014
rhumerus -4.73355 9.76662 16.2495
rradius 26.1322
rwrist -40.6421
rhand -10.6905 4.87374
rfingers 7.12502
rthumb 15.3186 -24.5389
lclavicle 3.18055e-015 1.27222e-014
lhumerus -7.71286 8.7236 -5.86515
lradius 25.3153
lwrist -13.3629
lhand 9.86415 54.4521
lfingers 7.12502
lthumb 34.9975 81.0088
rfemur -69.3041 -10.0017 15.3283
rtibia 69.9596
rfoot -18.5342 -16.5716
rtoes -14.9832
lfemur -68.0526 13.358 -15.4207
ltibia 68.4152
lfoot -26.168 -9.52743
ltoes -14.9694
122
root 11.2357 13.9284 -16.6284 24.0935 0.444979 0.643637
lowerback 15.0253 -0.984733 0.917489
upperback -1.7759 -0.957103 1.78596
thorax -10.3837 -0.446244 1.6454
lowerneck -12.7334 0.0322824 -3.80403
upperneck -10.7826 0.701234 4.14494
head -1.31498 0.468799 1.98681
rclavicle -1.78906e-014 2.06736e-014
rhumerus -4.65156 9.36819 16.2767
rradius 26.0192
rwrist -40.0746
rhand -10.5822 5.14173
rfingers 7.12502
rthumb 15.423 -24.2629
lclavicle -1.78906e-014 2.06736e-014
lhumerus -7.90108 8.15225 -5.93557
lradius 25.3963
lwrist -13.1021
lhand 9.98198 54.4829
lfingers 7.12502
lthumb 35.1092 81.0134
rfemur -69.7779 -10.1806 15.3766
rtibia 70.4455
rfoot -18.6016 -16.5669
rtoes -15.1873
lfemur -68.544 13.508 -15.5708
ltibia 68.9872
lfoot -26.4188 -9.68485
ltoes -15.5002
123
root 11.2381 13.8941 -16.636 24.131 0.499755 0.662677
lowerback 15.2332 -1.01327 0.955618
upperback -1.75521 -0.98552 1.76797
thorax -10.4818 -0.46182 1.61586
lowerneck -12.8244 0.0565646 -3.77541
upperneck -10.9104 0.737731 4.16744
head -1.34373 0.486801 1.99099
rclavicle 2.38542e-015 -1.19271e-015
rhumerus -4.6132 9.68252 16.2789
rradius 25.9603
rwrist -40.0822
rhand -11.1062 4.99775
rfingers 7.12502
rthumb 14.9182 -24.445
lclavicle 2.38542e-015 -1.19271e-015
lhumerus -7.93693 7.78412 -6.05463
lradius 25.431
lwrist -13.1173
lhand 10.53 54.5074
lfingers 7.12502
lthumb 35.6289 80.9143
rfemur -70.158 -10.362 15.4323
rtibia 70.909
rfoot -18.538 -16.766
rtoes -16.7993
lfemur -68.9696 13.5416 -15.6501
ltibia 69.5181
lfoot -26.5115 -9.88869
ltoes -15.0898
124
root 11.242 13.8626 -16.6388 24.2468 0.522694 0.484157
lowerback 15.2662 -1.01793 1.16686
upperback -1.74142 -0.948059 1.79939
thorax -10.4897 -0.45521 1.52185
lowerneck -12.8468 0.0415369 -3.69092
upperneck -11.0841 0.706659 4.06534
head -1.39476 0.468304 1.94186
rclavicle 1.49089e-014 -2.5842e-014
rhumerus -4.56278 10.2594 16.3784
rradius 25.8982
rwrist -40.3469
rhand -11.4087 4.57378
rfingers 7.12502
rthumb 14.6268 -24.8904
lclavicle 1.49089e-014 -2.5842e-014
lhumerus -7.87995 7.32701 -6.21342
lradius 25.3706
lwrist -13.0877
lhand 10.815 54.455
lfingers 7.12502
lthumb 35.8989 80.7963
rfemur -70.5615 -10.4163 15.702
rtibia 71.3475
rfoot -18.5616 -16.8785
rtoes -18.3839
lfemur -69.442 13.7175 -15.5425
ltibia 70.0586
lfoot -26.6312 -10.1476
ltoes -14.2547
125
root 11.2435 13.8244 -16.6467 24.2739 0.555343 0.360956
lowerback 15.4464 -1.04589 1.27834
upperback -1.68931 -0.954602 1.85557
thorax -10.5373 -0.462433 1.52475
lowerneck -12.8682 0.071825 -3.62893
upperneck -11.2952 0.735311 3.8946
head -1.4606 0.480896 1.87595
rclavicle -1.78906e-015 1.23246e-014
rhumerus -4.47072 10.6911 16.5539
rradius 25.8641
rwrist -40.7347
rhand -11.1593 4.53392
rfingers 7.12502
rthumb 14.8671 -24.9127
lclavicle -1.78906e-015 1.23246e-014
lhumerus -7.78921 7.13107 -6.34559
lradius 25.1547
lwrist -13.295
lhand 10.5766 54.1381
lfingers 7.12502
lthumb 35.673 80.5343
rfemur -70.9392 -10.531 15.9343
rtibia 71.8074
rfoot -18.5323 -16.9462
rtoes -18.9849
lfemur -69.8804 13.8708 -15.4769
ltibia 70.6046
lfoot -26.8314 -9.93486
ltoes -15.2476
126
root 11.2445 13.7815 -16.658 24.2526 0.527684 0.342167
lowerback 15.7728 -1.08045 1.22947
upperback -1.65242 -0.999185 1.88286
thorax -10.6834 -0.478672 1.60083
lowerneck -12.9646 0.161198 -3.59727
upperneck -11.4184 0.852169 3.81854
head -1.48989 0.539391 1.84909
rclavicle 1.45113e-014 -1.39149e-014
rhumerus -4.38657 10.6313 16.6101
rradius 25.8275
rwrist -40.6724
rhand -10.8087 4.82087
rfingers 7.12502
rthumb 15.2048 -24.6004
lclavicle 1.45113e-014 -1.39149e-014
lhumerus -7.79743 7.29475 -6.50216
lradius 24.9641
lwrist -13.7641
lhand 10.6566 54.0828
lfingers 7.12502
lthumb 35.7488 80.4606
rfemur -71.3359 -10.6359 15.9962
rtibia 72.2943
rfoot -18.739 -16.768
rtoes -18.4399
lfemur -70.2661 13.9632 -15.4949
ltibia 71.1495
lfoot -26.9013 -9.7824
ltoes -15.4681
127
root 11.2484 13.7402 -16.6641 24.3582 0.441589 0.15198
lowerback 15.8931 -1.04766 1.344
upperback -1.64752 -0.924688 1.93369
thorax -10.7503 -0.447933 1.57602
lowerneck -13.0006 0.20616 -3.52068
upperneck -11.5628 0.898447 3.66643
head -1.532 0.560613 1.78712
rclavicle -2.38542e-015 -7.15625e-015
rhumerus -4.48525 10.3889 16.6351
rradius 25.7901
rwrist -40.2388
rhand -10.9841 5.01006
rfingers 7.12502
rthumb 15.0358 -24.424
lclavicle -2.38542e-015 -7.15625e-015
lhumerus -7.75625 7.37223 -6.67488
lradius 24.8495
lwrist -13.9552
lhand 10.9833 54.4386
lfingers 7.12502
lthumb 36.0584 80.7408
rfemur -71.8886 -10.6524 16.2724
rtibia 72.7791
rfoot -18.8912 -16.5631
rtoes -17.4415
lfemur -70.7404 14.2377 -15.3924
ltibia 71.7162
lfoot -27.1064 -9.93308
ltoes -15.1075
128
root 11.2521 13.7027 -16.6707 24.4628 0.386917 0.102751
lowerback 16.011 -0.989857 1.40185
upperback -1.59223 -0.835742 1.92001
thorax -10.7593 -0.409571 1.50768
lowerneck -13.2214 0.187012 -3.45881
upperneck -11.6799 0.869426 3.57824
head -1.53326 0.546145 1.74741
rclavicle -4.37326e-015 1.07344e-014
rhumerus -4.76395 10.1512 16.7002
rradius 25.8042
rwrist -40.0754
rhand -11.3339 5.08092
rfingers 7.12502
rthumb 14.6988 -24.378
lclavicle -4.37326e-015 1.07344e-014
lhumerus -7.5929 7.35968 -6.8288
lradius 24.797
lwrist -13.9362
lhand 11.1435 54.6728
lfingers 7.12502
lthumb 36.2101 80.9374
rfemur -72.4268 -10.7954 16.4462
rtibia 73.2589
rfoot -18.9015 -16.5065
rtoes -16.7392
lfemur -71.1895 14.4261 -15.4411
ltibia 72.2387
lfoot -27.4466 -9.79045
ltoes -16.2812
129
root 11.2559 13.6688 -16.6784 24.5242 0.33399 0.155994
lowerback 16.1108 -0.979711 1.32542
upperback -1.45785 -0.838585 1.9081
thorax -10.6658 -0.407006 1.53786
lowerneck -13.4303 0.23287 -3.4539
upperneck -12.0125 0.944646 3.59902
head -1.61281 0.585321 1.75762
rclavicle 8.94531e-015 -1.15295e-014
rhumerus -4.84766 10.0452 16.8241
rradius 25.8099
rwrist -40.2138
rhand -11.4316 5.09157
rfingers 7.12502
rthumb 14.6047 -24.3742
lclavicle 8.94531e-015 -1.15295e-014
lhumerus -7.63927 7.43818 -6.99842
lradius 24.8088
lwrist -14.0119
lhand 11.3859 54.8689
lfingers 7.12502
lthumb 36.4396 81.0762
rfemur -72.8406 -10.9463 16.4447
rtibia 73.6914
rfoot -18.9528 -16.511
rtoes -16.6712
lfemur -71.5672 14.5049 -15.5733
ltibia 72.7089
lfoot -27.5371 -9.72613
ltoes -16.4142
130
root 11.2605 13.6382 -16.6865 24.5605 0.318635 0.0560141
lowerback 16.2614 -0.989556 1.35071
upperback -1.35862 -0.834851 1.9998
thorax -10.6414 -0.403398 1.62401
lowerneck -13.4325 0.304833 -3.53451
upperneck -12.4719 1.05789 3.56372
head -1.76972 0.645572 1.76555
rclavicle -7.35503e-015 8.74653e-015
rhumerus -4.79586 10.2863 17.1084
rradius 25.862
rwrist -40.5464
rhand -11.5673 4.92124
rfingers 7.12502
rthumb 14.4739 -24.554
lclavicle -7.35503e-015 8.74653e-015
lhumerus -7.89156 7.67811 -7.1903
lradius 24.8448
lwrist -14.4095
lhand 11.6732 54.8517
lfingers 7.12502
lthumb 36.7115 80.9902
rfemur -73.1896 -11.0572 16.6264
rtibia 74.078
rfoot -19.0849 -16.4418
rtoes -17.0055
lfemur -71.9412 14.6604 -15.5613
ltibia 73.155
lfoot -27.5392 -9.80587
ltoes -16.0685
131
root 11.2635 13.6076 -16.6987 24.6117 0.336105 0.0396984
lowerback 16.5675 -0.987593 1.34724
upperback -1.38488 -0.818531 2.04706
thorax -10.8473 -0.392599 1.68206
lowerneck -13.3147 0.306775 -3.61969
upperneck -12.7963 1.0724 3.54658
head -1.89797 0.655676 1.77683
rclavicle 3.97569e-015 1.35174e-014
rhumerus -4.88227 10.9509 17.4677
rradius 25.9715
rwrist -41.3068
rhand -11.6729 5.29263
rfingers 7.12502
rthumb 14.3722 -24.1898
lclavicle 3.97569e-015 1.35174e-014
lhumerus -8.19164 7.72693 -7.4266
lradius 25.0188
lwrist -14.8319
lhand 11.7659 54.6462
lfingers 7.12502
lthumb 36.7993 80.7622
rfemur -73.5628 -11.178 16.7135
rtibia 74.4611
rfoot -19.3625 -16.1744
rtoes -16.3057
lfemur -72.353 14.7444 -15.6216
ltibia 73.5767
lfoot -27.6412 -9.83974
ltoes -16.2023
132
root 11.2647 13.5728 -16.7132 24.6683 0.32147 0.114088
lowerback 16.8578 -0.999129 1.23168
upperback -1.41779 -0.848166 2.05012
thorax -11.0496 -0.398258 1.76716
lowerneck -13.0885 0.325915 -3.62287
upperneck -13.2257 1.09774 3.51891
head -2.07922 0.666812 1.771
rclavicle 7.95139e-015 8.34896e-015
rhumerus -4.94706 11.5238 17.7371
rradius 26.0127
rwrist -41.9044
rhand -11.7486 5.86974
rfingers 7.12502
rthumb 14.2992 -23.6179
lclavicle 7.95139e-015 8.34896e-015
lhumerus -8.35586 7.52935 -7.71449
lradius 25.0455
lwrist -14.9658
lhand 11.8754 54.7167
lfingers 7.12502
lthumb 36.9029 80.8062
rfemur -73.9694 -11.2378 16.6324
rtibia 74.8506
rfoot -19.5683 -15.9124
rtoes -15.0193
lfemur -72.7899 14.7725 -15.7656
ltibia 74.0071
lfoot -27.7465 -9.6875
ltoes -16.8226
133
root 11.2672 13.5338 -16.7261 24.621 0.312711 0.142766
lowerback 17.2215 -1.01081 1.14523
upperback -1.36058 -0.867973 2.0952
thorax -11.1932 -0.399461 1.87927
lowerneck -13.1493 0.370651 -3.63339
upperneck -13.5006 1.16009 3.44197
head -2.16422 0.699958 1.75063
rclavicle 1.72943e-014 5.96354e-015
rhumerus -4.9599 11.5019 17.9697
rradius 25.9748
rwrist -41.8613
rhand -11.8018 5.65261
rfingers 7.12502
rthumb 14.248 -23.8386
lclavicle 1.72943e-014 5.96354e-015
lhumerus -8.25366 7.42389 -7.91062
lradius 24.7902
lwrist -15.0663
lhand 12.0506 54.9107
lfingers 7.12502
lthumb 37.0686 80.9574
rfemur -74.2546 -11.3441 16.6118
rtibia 75.2362
rfoot -19.5843 -15.9489
rtoes -15.8732
lfemur -73.1149 14.8192 -15.8426
ltibia 74.4595
lfoot -27.7744 -9.4933
ltoes -17.7155
134
root 11.269 13.5053 -16.7339 24.5376 0.158839 0.176882
lowerback 17.5726 -0.937569 0.984887
upperback -1.26542 -0.797059 2.09974
thorax -11.288 -0.3553 1.9634
lowerneck -13.318 0.381292 -3.5187
upperneck -13.6516 1.15814 3.29934
head -2.18549 0.69664 1.68431
rclavicle -1.49089e-014 -3.18055e-015
rhumerus -5.07788 11.2116 18.1683
rradius 25.9481
rwrist -41.665
rhand -11.8134 5.09427
rfingers 7.12502
rthumb 14.2368 -24.3978
lclavicle -1.49089e-014 -3.18055e-015
lhumerus -8.12957 7.48088 -8.0784
lradius 24.6577
lwrist -15.1939
lhand 12.2583 55.0724
lfingers 7.12502
lthumb 37.265 81.0678
rfemur -74.4484 -11.4001 16.581
rtibia 75.5918
rfoot -19.5237 -16.1833
rtoes -18.0457
lfemur -73.2615 15.0009 -15.957
ltibia 74.8772
lfoot -27.9126 -9.58907
ltoes -17.6825
135
root 11.2681 13.4779 -16.7418 24.6675 -0.0883598 0.224876
lowerback 17.6168 -0.823327 0.720444
upperback -1.15946 -0.704733 2.08337
thorax -11.193 -0.297391 2.06944
lowerneck -13.6172 0.384027 -3.3901
upperneck -13.8319 1.15205 3.21317
head -2.19625 0.690817 1.6348
rclavicle -7.35503e-015 -7.15625e-015
rhumerus -5.22058 10.8291 18.3261
rradius 25.9304
rwrist -41.3608
rhand -11.9467 4.71882
rfingers 7.12502
rthumb 14.1084 -24.7822
lclavicle -7.35503e-015 -7.15625e-015
lhumerus -8.12388 7.5492 -8.35437
lradius 24.6489
lwrist -15.0645
lhand 12.3022 55.1849
lfingers 7.12502
lthumb 37.3065 81.1695
rfemur -74.9167 -11.3157 16.5174
rtibia 75.9626
rfoot -19.6006 -16.1933
rtoes -18.7469
lfemur -73.6182 15.2541 -16.1426
ltibia 75.276
lfoot -28.1301 -9.51123
ltoes -17.8334
